# xmcd
# 
# Track frame offsets:
#     150
#     14452
#     27550
#     41172
#     54225
#     69087
#     82050
#     93962
#     105687
#     118200
#     133387
#     147235
# 
# Disc length: 2138
# 
# Revision: 2
# Processed by: cddbd v1.5.2PL0 Copyright (c) Steve Scherf et al.
# Submitted via: fre:ac v1.0.27
# 
DISCID=aa08580c
DTITLE=Muddy Waters - The Legendary Muddy Waters
DYEAR=1993
DGENRE=Blues
TTITLE0=I Feel Like Going Home
TTITLE1=Louisiana Blues
TTITLE2=Sad Letter
TTITLE3=Down South Blues
TTITLE4=Still A Fool
TTITLE5=Forty Days And Forty Nights
TTITLE6=Making Friends
TTITLE7=Kind Hearted Woman
TTITLE8=Walking In The Park
TTITLE9=Honey Bee
TTITLE10=Lonesome Road Blues
TTITLE11=Mannish Boy
EXTD=
EXTT0=
EXTT1=
EXTT2=
EXTT3=
EXTT4=
EXTT5=
EXTT6=
EXTT7=
EXTT8=
EXTT9=
EXTT10=
EXTT11=
PLAYORDER=
